<svg xmlns="http://www.w3.org/2000/svg" version="1.1" xmlns:xlink="http://www.w3.org/1999/xlink" xmlns:svgjs="http://svgjs.dev/svgjs" width="1500" height="238" viewBox="0 0 1500 238"><g transform="matrix(1,0,0,1,-0.9090909090911055,0.5616083632569229)"><svg viewBox="0 0 396 63" data-background-color="#ffffff" preserveAspectRatio="xMidYMid meet" height="238" width="1500" xmlns="http://www.w3.org/2000/svg" xmlns:xlink="http://www.w3.org/1999/xlink"><g id="tight-bounds" transform="matrix(1,0,0,1,0.24000000000003752,-0.1486610373327153)"><svg viewBox="0 0 395.5199999999999 63.29732207466546" height="63.29732207466546" width="395.5199999999999"><g><svg viewBox="0 0 569.780902915094 91.18528854118729" height="63.29732207466546" width="395.5199999999999"><g><rect width="5.950205082389322" height="66.31057524160146" x="152.73424473744464" y="12.437356649792918" fill="red" opacity="1" stroke-width="0" stroke="transparent" fill-opacity="1" class="rect-qz-0" data-fill-palette-color="secondary" rx="1%" id="qz-0" data-palette-color="#d2d6dc"></rect></g><g transform="matrix(1,0,0,1,174.26090291509396,12.602308329498392)"><svg viewBox="0 0 395.52 65.9806718821905" height="65.9806718821905" width="395.52"><g id="textblocktransform"><svg viewBox="0 0 395.52 65.9806718821905" height="65.9806718821905" width="395.52" id="textblock"><g><svg viewBox="0 0 395.52 65.9806718821905" height="65.9806718821905" width="395.52"><g transform="matrix(1,0,0,1,0,0)"><svg width="395.52" viewBox="3.2 -35.5 217.28 36.25" height="65.9806718821905" data-palette-color="#d2d6dc"><path d="M18.9 0L18.9-17.15Q18.9-20.2 17.13-21.58 15.35-22.95 12.55-22.95L12.55-22.95Q10.85-22.95 9.1-22.48 7.35-22 6-21.25L6-21.25 6 0 3.2 0 3.2-25.05 6-25.05 5.8-23.35Q7-24.4 8.85-24.93 10.7-25.45 12.7-25.45L12.7-25.45Q15.45-25.45 17.4-24.55L17.4-24.55Q19.4-23.65 20.53-21.85 21.65-20.05 21.65-17.3L21.65-17.3 21.65 0 18.9 0ZM43.5-1.75Q41.7-0.6 39.4 0 37.1 0.6 34.8 0.6L34.8 0.6Q31.1 0.6 28.92-1.23 26.75-3.05 26.75-6.7L26.75-6.7 26.75-16.95Q26.75-21 29.27-23.25 31.8-25.5 35.95-25.5L35.95-25.5Q40.1-25.5 42.42-23.28 44.75-21.05 44.75-17.1L44.75-17.1 44.75-10.6 29.55-9.75 29.55-6.7Q29.55-4.3 31.1-3.1 32.65-1.9 35.15-1.9L35.15-1.9Q38.65-1.9 42.4-3.9L42.4-3.9 43.5-1.75ZM41.95-17.45Q41.95-20.55 40-21.83 38.05-23.1 35.9-23.1L35.9-23.1Q33.15-23.1 31.35-21.6 29.55-20.1 29.55-16.9L29.55-16.9 29.55-12.5 41.95-13.1 41.95-17.45ZM64.7 0L58.55-9.85 52.4 0 49.1 0 56.9-12.45 49.1-25.05 52.25-25.05 58.55-15.05 64.85-25.05 68-25.05 60.15-12.45 68 0 64.7 0ZM87.34 0L87.54-2.55Q86.34-1.05 84.52-0.25 82.69 0.55 80.84 0.55L80.84 0.55Q71.44 0.55 71.44-8.6L71.44-8.6 71.44-25.05 74.24-25.05 74.24-8.25Q74.24-5.05 76.02-3.5 77.79-1.95 80.84-1.95L80.84-1.95Q83.84-1.95 85.57-3.48 87.29-5 87.29-8.25L87.29-8.25 87.29-25.05 90.09-25.05 90.09 0 87.34 0ZM96.44-6.35Q96.74-4.1 98.69-2.98 100.64-1.85 103.04-1.85L103.04-1.85Q105.29-1.85 107.14-2.88 108.99-3.9 108.99-6.2L108.99-6.2Q108.99-7.7 108.12-8.68 107.24-9.65 105.94-10.25 104.64-10.85 102.44-11.55L102.44-11.55Q99.99-12.35 98.44-13.05 96.89-13.75 95.74-15.03 94.59-16.3 94.39-18.25L94.39-18.25 94.34-18.85Q94.34-20.5 95.27-22.08 96.19-23.65 98.12-24.65 100.04-25.65 102.94-25.65L102.94-25.65Q104.54-25.65 105.77-25.33 106.99-25 107.69-24.65 108.39-24.3 108.54-24.2L108.54-24.2 107.59-21.9Q107.44-22 106.87-22.3 106.29-22.6 105.24-22.9 104.19-23.2 102.94-23.2L102.94-23.2Q100.54-23.2 98.84-22.08 97.14-20.95 97.14-18.95L97.14-18.95Q97.14-17.05 98.69-16.05 100.24-15.05 103.44-14.05L103.44-14.05Q106.14-13.15 107.79-12.35 109.44-11.55 110.62-10.08 111.79-8.6 111.79-6.25L111.79-6.25Q111.79-3.25 109.57-1.25 107.34 0.75 103.04 0.75L103.04 0.75Q100.19 0.75 98.12-0.23 96.04-1.2 94.97-2.8 93.89-4.4 93.79-6.35L93.79-6.35 96.44-6.35ZM121.04 0.65Q118.24-0.15 116.99-1.9 115.74-3.65 115.74-6.6L115.74-6.6 115.74-35 118.54-35 118.54-25.05 124.54-25.05 123.34-22.4 118.54-22.4 118.54-6.6Q118.54-2.6 121.84-1.5L121.84-1.5 121.04 0.65ZM144.19-1.75Q142.39-0.6 140.09 0 137.79 0.6 135.49 0.6L135.49 0.6Q131.79 0.6 129.61-1.23 127.44-3.05 127.44-6.7L127.44-6.7 127.44-16.95Q127.44-21 129.96-23.25 132.49-25.5 136.64-25.5L136.64-25.5Q140.79-25.5 143.11-23.28 145.44-21.05 145.44-17.1L145.44-17.1 145.44-10.6 130.24-9.75 130.24-6.7Q130.24-4.3 131.79-3.1 133.34-1.9 135.84-1.9L135.84-1.9Q139.34-1.9 143.09-3.9L143.09-3.9 144.19-1.75ZM142.64-17.45Q142.64-20.55 140.69-21.83 138.74-23.1 136.59-23.1L136.59-23.1Q133.84-23.1 132.04-21.6 130.24-20.1 130.24-16.9L130.24-16.9 130.24-12.5 142.64-13.1 142.64-17.45ZM165.28-0.3Q162.18 0.5 159.28 0.5L159.28 0.5Q156.58 0.5 154.78-0.1L154.78-0.1Q151.83-1.1 150.51-3.18 149.18-5.25 149.18-9L149.18-9 149.18-15.4Q149.18-20.35 151.78-22.93 154.38-25.5 158.48-25.5L158.48-25.5Q161.73-25.5 165.18-23.9L165.18-23.9 164.38-21.85Q161.53-23 158.88-23L158.88-23Q155.78-23 153.88-21.23 151.98-19.45 151.98-15.7L151.98-15.7 151.98-8.45Q151.98-5 154.06-3.45 156.13-1.9 159.58-1.9L159.58-1.9Q161.83-1.9 164.68-2.55L164.68-2.55 165.28-0.3ZM183.73 0L183.73-17.15Q183.73-20.2 181.96-21.58 180.18-22.95 177.38-22.95L177.38-22.95Q175.68-22.95 173.93-22.48 172.18-22 170.83-21.25L170.83-21.25 170.83 0 168.03 0 168.03-35 170.83-35 170.83-23.7Q172.08-24.55 173.83-25.03 175.58-25.5 177.48-25.5L177.48-25.5Q180.08-25.5 182.23-24.55L182.23-24.55Q184.23-23.65 185.36-21.85 186.48-20.05 186.48-17.3L186.48-17.3 186.48 0 183.73 0ZM195.08-32.15Q194.43-32.15 193.9-32.68 193.38-33.2 193.38-33.85L193.38-33.85Q193.38-34.5 193.88-35 194.38-35.5 195.08-35.5L195.08-35.5Q195.78-35.5 196.25-35.02 196.73-34.55 196.73-33.85L196.73-33.85Q196.73-33.15 196.23-32.65 195.73-32.15 195.08-32.15L195.08-32.15ZM193.63 0L193.63-25.05 196.43-25.05 196.43 0 193.63 0ZM219.23-1.75Q217.43-0.6 215.13 0 212.83 0.6 210.53 0.6L210.53 0.6Q206.83 0.6 204.65-1.23 202.48-3.05 202.48-6.7L202.48-6.7 202.48-16.95Q202.48-21 205-23.25 207.53-25.5 211.68-25.5L211.68-25.5Q215.83-25.5 218.15-23.28 220.48-21.05 220.48-17.1L220.48-17.1 220.48-10.6 205.28-9.75 205.28-6.7Q205.28-4.3 206.83-3.1 208.38-1.9 210.88-1.9L210.88-1.9Q214.38-1.9 218.13-3.9L218.13-3.9 219.23-1.75ZM217.68-17.45Q217.68-20.55 215.73-21.83 213.78-23.1 211.63-23.1L211.63-23.1Q208.88-23.1 207.08-21.6 205.28-20.1 205.28-16.9L205.28-16.9 205.28-12.5 217.68-13.1 217.68-17.45Z" opacity="1" transform="matrix(1,0,0,1,0,0)" fill="red" class="wordmark-text-0" data-fill-palette-color="primary" id="text-0"></path></svg></g></svg></g></svg></g></svg></g><g><svg viewBox="0 0 137.15779164218463 91.18528854118729" height="91.18528854118729" width="137.15779164218463"><g><svg xmlns="http://www.w3.org/2000/svg" xmlns:xlink="http://www.w3.org/1999/xlink" version="1.1" x="8" y="0" viewBox="10.074798390981691 70.9 491.88538910120485 370.20079787234056" style="enable-background:new 0 0 512 512;" xml:space="preserve" height="91.18528854118729" width="121.15779164218463" class="icon-icon-0" data-fill-palette-color="accent" id="icon-0"><g fill="red" data-fill-palette-color="accent"><path d="M255 152.6c19.3 0 35-15.7 35-35.1v-11.6c0-19.3-15.7-35-35-35s-35 15.7-35 35v11.6C220 136.8 235.6 152.5 255 152.6z" fill="red" data-fill-palette-color="accent"></path><path d="M501.1 262.4c-2.8-10.4-12.3-17.6-23-17.6-6.4 0-12.4 2.6-16.9 7.2-3 3.1-5.1 6.9-6.2 11H334v-32h25.1c13.3 0.1 24.1-10.6 24.2-23.9 0 0 0 0 0-0.1 0-6.7 5.4-12 12.1-12 0 0 0.1 0 0.1 0h33.7c1.1 4 3.2 7.7 6.2 10.6 9.3 9.4 24.5 9.4 33.8 0.1 9.4-9.3 9.4-24.5 0.1-33.8-9.3-9.4-24.5-9.4-33.8-0.1 0 0-0.1 0.1-0.1 0.1-3.2 2.9-5.4 6.8-6.2 11.1h-33.7c-13.3-0.1-24.1 10.6-24.2 23.9 0 0 0 0 0 0.1 0 6.7-5.4 12-12.1 12 0 0-0.1 0-0.1 0H334v-25c0.1-2.8 0-5.6-0.3-8.4 11.7-0.4 22.1-7.8 26.1-18.8l11.8-31.9c2.5-6.6 8.8-11 15.8-11h3.1c0.8 4.9 3.1 9.4 6.7 12.9 9.3 9.3 24.4 9.3 33.8 0 9.3-9.3 9.3-24.4 0-33.8-9.3-9.3-24.4-9.3-33.8 0 0 0 0 0 0 0-2.4 2.6-4.3 5.6-5.6 8.9h-4.2c-12.1 0-22.9 7.5-27.1 18.8l-11.8 32c-2.5 6.6-8.8 11.1-15.8 11.1h-3c-1.1-2.1-2.4-4.1-3.9-6-6.1-7.4-14.9-12.1-24.4-13-0.4 0-1.3 0-26.8 0h0c-2.1-0.1-4.1 1-5.2 2.8l-13.5 23.5L243 157.9c-1.1-1.9-3.1-3-5.3-2.9h-24.1c-9.6-0.1-18.8 3.7-25.6 10.5-2.5 2.5-4.7 5.4-6.4 8.5h-2.4c-7.1-0.1-13.4-4.5-15.8-11.2l-11.8-32c-4.2-11.3-15-18.8-27.1-18.9h-4.2c-1.3-3.3-3.2-6.3-5.6-8.9-9.3-9.3-24.4-9.2-33.7 0.1-9.3 9.3-9.2 24.4 0.1 33.7 9.3 9.2 24.3 9.2 33.6 0 3.5-3.5 5.9-8 6.7-12.9h3.1c7.1 0 13.4 4.4 15.8 11l11.8 31.9c4 10.8 14.1 18.2 25.6 18.8-0.2 1.7-0.4 3.4-0.4 5.1 0 0.4 0 13.2 0.1 28.2h-24.6c-6.7 0.1-12.1-5.2-12.2-11.9 0 0 0-0.1 0-0.1 0-13.3-10.8-24-24.1-24 0 0 0 0-0.1 0H82.8c-0.8-4.3-3-8.2-6.2-11.1-9.3-9.3-24.4-9.4-33.7-0.1-9.3 9.3-9.3 24.3-0.1 33.6 0 0 0 0 0.1 0.1 4.5 4.5 10.7 7 17.1 7 6.4-0.1 12.5-2.6 17.1-7v0.2c2.9-3 4.9-6.6 5.8-10.6h33.7c6.7-0.1 12.1 5.2 12.2 11.9 0 0 0 0.1 0 0.1 0 13.3 10.8 24 24.1 24 0 0 0 0 0.1 0h24.6c0 13 0.1 26 0.1 32H56.9c-1.1-4.2-3.2-8-6.2-11-9.3-9.3-24.3-9.4-33.6-0.1s-9.4 24.3-0.1 33.6c4.5 4.5 10.6 7 16.9 7 10.8 0.1 20.3-7.1 23.1-17.5h122.9c1.1 2.1 2.6 4.1 4.3 5.8 4.1 4.1 9.8 6.3 15.6 6.2h0.3c3.6-0.1 7.2-1.1 10.3-2.9l0.7 21.9h-57.9c-13.4 0.2-24.2 11.1-24.2 24.5 0 6.8-5.4 12.3-12.2 12.5H82.8c-1.1-4.1-3.2-7.9-6.2-11-9.3-9.3-24.4-9.3-33.7-0.1-9.3 9.3-9.3 24.5 0 33.8 9.3 9.3 24.5 9.3 33.8 0 3-3 5.1-6.6 6.2-10.7h33.7c13.4-0.2 24.2-11.1 24.2-24.5 0-6.8 5.4-12.3 12.2-12.5h58.3l1 34h-32.9c-12-0.1-22.9 7.4-27.1 18.6l-11.8 31.6c-2.5 6.5-8.8 10.8-15.8 10.7h-3.1c-1-4.8-3.3-9.2-6.7-12.7-9.3-9.5-24.5-9.6-34-0.3s-9.6 24.5-0.3 34c9.3 9.5 24.5 9.6 34 0.3 0.1-0.1 0.2-0.2 0.3-0.3 2.7-2.4 4.6-5.6 5.6-9h4.2c12 0.1 22.9-7.4 27.1-18.7l11.8-31.6c2.5-6.5 8.8-10.8 15.8-10.7h33.2l1.6 53.1c0 0.1 0 0.3 0 0.4 0.7 7.7 7.2 13.6 15 13.5h53.6c7.8 0 14.3-5.9 15-13.7 0-0.1 0-0.2 0-0.2l1.5-53.1h33.5c7-0.1 13.4 4.2 15.8 10.8l11.8 31.6c4.3 11.2 15.1 18.6 27.1 18.6h4.2c1 3.5 2.9 6.6 5.6 9 9.2 9.4 24.3 9.4 33.7 0.2 0 0 0 0 0.1-0.1 9.3-9.3 9.3-24.4 0-33.7 0 0 0 0 0 0-9.3-9.4-24.4-9.4-33.7-0.2-3.4 3.5-5.7 8-6.7 12.7h-3.1c-7 0.1-13.3-4.3-15.8-10.8l-11.8-31.6c-4.3-11.2-15.1-18.6-27.1-18.5h-33.2l0.9-34h58.6c6.8 0.2 12.2 5.7 12.2 12.5 0 13.4 10.8 24.3 24.2 24.5h33.7c3.3 12.7 16.4 20.4 29.1 17 12.7-3.3 20.4-16.4 17-29.1-1.1-4.2-3.3-8-6.4-11-9.3-9.3-23.9-9.3-33.9 0v0.1c-2.9 3.1-4.9 6.9-5.8 11h-33.7c-6.8-0.2-12.2-5.7-12.2-12.5 0-13.4-10.8-24.3-24.2-24.5h-58.3l0.6-21.6c3.2 1.8 6.7 2.8 10.3 2.8 8.4-0.1 16-4.8 19.9-12.2H455c3.5 12.7 16.6 20.2 29.4 16.7C497.1 288.2 504.6 275.1 501.1 262.4z" fill="red" data-fill-palette-color="accent"></path></g></svg></g></svg></g></svg></g><defs></defs></svg><rect width="395.5199999999999" height="63.29732207466546" fill="none" stroke="none" visibility="hidden"></rect></g></svg></g></svg>